<svg width="61" height="61" viewBox="0 0 61 61" fill="none" xmlns="http://www.w3.org/2000/svg">
<rect x="3" y="3" width="55" height="55" rx="27.5" fill="#FF7A1A"/>
<rect x="3" y="3" width="55" height="55" rx="27.5" stroke="#FF7A1A" stroke-width="5"/>
<path d="M30.5 30H38.625V38.125H30.5V30ZM41.875 15.375H40.25V12.125H37V15.375H24V12.125H20.75V15.375H19.125C17.3375 15.375 15.875 16.8375 15.875 18.625V41.375C15.875 43.1625 17.3375 44.625 19.125 44.625H41.875C43.6625 44.625 45.125 43.1625 45.125 41.375V18.625C45.125 16.8375 43.6625 15.375 41.875 15.375ZM41.875 18.625V21.875H19.125V18.625H41.875ZM19.125 41.375V25.125H41.875V41.375H19.125Z" fill="white"/>
</svg>
